<svg width="243" height="243" viewBox="0 0 243 243" fill="none" xmlns="http://www.w3.org/2000/svg">
<line x1="4.82803" y1="145.373" x2="147.653" y2="5.36871" stroke="#A7A9BE"/>
<line x1="0.627895" y1="141.088" x2="143.452" y2="1.08398" stroke="#A7A9BE"/>
<line x1="99.3308" y1="241.779" x2="242.155" y2="101.775" stroke="#A7A9BE"/>
<line x1="95.1307" y1="237.495" x2="237.955" y2="97.4905" stroke="#A7A9BE"/>
<line x1="94.639" y1="4.85708" x2="234.643" y2="147.682" stroke="#A7A9BE"/>
<line x1="98.9069" y1="0.639797" x2="238.911" y2="143.464" stroke="#A7A9BE"/>
<line x1="1.08896" y1="96.5598" x2="141.093" y2="239.384" stroke="#A7A9BE"/>
<line x1="5.35682" y1="92.3425" x2="145.361" y2="235.167" stroke="#A7A9BE"/>
<path d="M109.453 127.609C109.453 129.203 109.344 130.766 109.125 132.297C108.938 133.828 108.797 135.391 108.703 136.984C108.484 136.766 108.234 136.594 107.953 136.469C107.703 136.312 107.438 136.234 107.156 136.234C106.812 136.234 106.484 136.344 106.172 136.562C105.859 136.781 105.703 137.062 105.703 137.406C105.703 137.781 105.875 138.031 106.219 138.156C106.594 138.281 106.969 138.344 107.344 138.344C107.656 138.344 107.875 138.328 108 138.297C108 138.672 107.891 139.062 107.672 139.469C107.484 139.844 107.234 140.219 106.922 140.594C106.641 140.969 106.328 141.328 105.984 141.672C105.672 141.984 105.391 142.266 105.141 142.516C104.953 142.703 104.75 142.969 104.531 143.312C104.312 143.656 104.062 144 103.781 144.344C103.531 144.656 103.266 144.938 102.984 145.188C102.703 145.406 102.422 145.516 102.141 145.516C101.828 145.516 101.578 145.438 101.391 145.281C101.203 145.094 100.984 145 100.734 145C100.391 145 100.172 145.188 100.078 145.562C100.016 145.906 99.9844 146.25 99.9844 146.594V147.156C99.9844 147.312 99.6562 147.516 99 147.766C98.3438 148.016 97.5469 148.297 96.6094 148.609C95.7031 148.891 94.75 149.188 93.75 149.5C92.7812 149.781 91.9688 150.062 91.3125 150.344C90.0312 150.875 88.7344 151.312 87.4219 151.656C86.1094 152 84.75 152.172 83.3438 152.172C82.3125 152.172 81.3125 152.031 80.3438 151.75C79.4062 151.5 78.4531 151.219 77.4844 150.906C76.5469 150.562 75.5938 150.266 74.625 150.016C73.6875 149.734 72.7031 149.594 71.6719 149.594C71.2656 149.594 70.7344 149.656 70.0781 149.781C69.4219 149.906 68.9219 150.094 68.5781 150.344C68.4219 150.469 68.2656 150.688 68.1094 151C67.9531 151.344 67.7656 151.516 67.5469 151.516C67.3906 151.516 67.1719 151.453 66.8906 151.328C66.6094 151.203 66.4062 151.109 66.2812 151.047C65.5625 150.672 64.9531 150.188 64.4531 149.594C63.9531 148.969 63.5312 148.297 63.1875 147.578C62.8438 146.859 62.5938 146.109 62.4375 145.328C62.2812 144.516 62.2031 143.734 62.2031 142.984C62.2031 142.453 62.25 141.938 62.3438 141.438C62.4688 140.906 62.5312 140.375 62.5312 139.844C62.5312 139.094 62.4375 138.359 62.25 137.641C62.0938 136.922 62.0156 136.188 62.0156 135.438C62.0156 134.906 62.0938 134.375 62.25 133.844C62.4375 133.312 62.5312 132.781 62.5312 132.25C62.5312 131.844 62.4375 131.469 62.25 131.125C62.0625 130.75 61.9688 130.359 61.9688 129.953C61.9688 129.672 62.0625 129.438 62.25 129.25C62.4688 129.062 62.5781 128.844 62.5781 128.594C62.5781 128.219 62.5625 127.844 62.5312 127.469C62.5 127.094 62.4844 126.719 62.4844 126.344C62.4844 126.156 62.4844 125.891 62.4844 125.547C62.5156 125.172 62.5625 124.812 62.625 124.469C62.6875 124.125 62.7969 123.828 62.9531 123.578C63.1094 123.328 63.3281 123.203 63.6094 123.203C64.1719 123.203 64.7344 123.562 65.2969 124.281C65.8906 124.969 66.4219 125.781 66.8906 126.719C67.3906 127.656 67.7969 128.594 68.1094 129.531C68.4219 130.469 68.5781 131.172 68.5781 131.641C68.5781 131.797 68.5156 131.953 68.3906 132.109C68.2656 132.234 68.1094 132.297 67.9219 132.297C68.0469 132.516 68.1875 132.844 68.3438 133.281C68.5 133.719 68.5781 134.062 68.5781 134.312C68.5781 134.688 68.5156 135.047 68.3906 135.391C68.2969 135.734 68.25 136.094 68.25 136.469C68.25 136.781 68.3125 137.078 68.4375 137.359C68.5938 137.641 68.75 137.906 68.9062 138.156C69.1562 138.531 69.375 138.812 69.5625 139C69.75 139.188 69.9531 139.328 70.1719 139.422C70.3906 139.484 70.625 139.531 70.875 139.562C71.1562 139.594 71.5156 139.625 71.9531 139.656C72.5781 140.562 73.2812 141.406 74.0625 142.188C74.8438 142.969 75.6875 143.672 76.5938 144.297C78 144.609 79.3906 144.859 80.7656 145.047C82.1406 145.234 83.5312 145.328 84.9375 145.328C86.0938 145.328 87.0938 145.203 87.9375 144.953C88.8125 144.703 89.6094 144.375 90.3281 143.969C91.0781 143.562 91.7969 143.109 92.4844 142.609C93.1719 142.078 93.8906 141.531 94.6406 140.969C95.1719 140.594 95.7344 140.234 96.3281 139.891C96.9219 139.547 97.5 139.188 98.0625 138.812C98.625 138.438 99.1562 138.031 99.6562 137.594C100.156 137.125 100.578 136.594 100.922 136C101.141 135.625 101.453 135.25 101.859 134.875C102.297 134.469 102.516 134.031 102.516 133.562C102.516 133.375 102.5 133.234 102.469 133.141C102.344 132.141 102.25 131.172 102.188 130.234C102.156 129.266 102.109 128.281 102.047 127.281C101.984 126.344 101.781 125.641 101.438 125.172C101.094 124.672 100.656 124.266 100.125 123.953C99.625 123.609 99.0781 123.281 98.4844 122.969C97.8906 122.656 97.3125 122.219 96.75 121.656C96.1562 121.062 95.4844 120.688 94.7344 120.531C94.0156 120.375 93.2656 120.281 92.4844 120.25C91.7031 120.219 90.9219 120.172 90.1406 120.109C89.3906 120.016 88.6875 119.719 88.0312 119.219C87.8438 119.094 87.6875 119.031 87.5625 119.031C87.2812 119.031 87 119.125 86.7188 119.312C86.4688 119.469 86.1875 119.547 85.875 119.547C85.4062 119.547 84.9219 119.484 84.4219 119.359C83.9531 119.234 83.4844 119.094 83.0156 118.938C82.5469 118.781 82.0781 118.625 81.6094 118.469C81.1406 118.312 80.6719 118.203 80.2031 118.141C79.5781 118.047 79.0625 117.984 78.6562 117.953C78.2812 117.922 77.9219 117.875 77.5781 117.812C77.2656 117.719 76.9219 117.594 76.5469 117.438C76.1719 117.25 75.7031 116.969 75.1406 116.594C73.5156 115.531 71.7812 114.75 69.9375 114.25C69.5938 113.375 69.1406 112.484 68.5781 111.578C68.2344 111.359 67.8906 111.156 67.5469 110.969C67.2344 110.75 66.9219 110.516 66.6094 110.266C66.4219 109.953 66.1719 109.406 65.8594 108.625C65.5781 107.844 65.2969 107.016 65.0156 106.141C64.7344 105.234 64.4844 104.391 64.2656 103.609C64.0781 102.828 63.9844 102.266 63.9844 101.922C63.9844 101.203 64.0625 100.516 64.2188 99.8594C64.375 99.2031 64.7344 98.6094 65.2969 98.0781C65.3906 98.0156 65.5 97.9375 65.625 97.8438C65.7812 97.7188 65.8594 97.5781 65.8594 97.4219C65.8594 97.2656 65.7344 97.1562 65.4844 97.0938C65.2656 97 65.1562 96.8281 65.1562 96.5781C65.1562 96.5469 65.1719 96.5 65.2031 96.4375C65.2344 96.3438 65.25 96.2656 65.25 96.2031C65.4688 95.5156 65.7969 94.8594 66.2344 94.2344C66.6719 93.6094 67.1719 93.0156 67.7344 92.4531C68.2969 91.8906 68.875 91.375 69.4688 90.9062C70.0938 90.4062 70.6875 89.9531 71.25 89.5469C71.6562 89.2656 72 88.9062 72.2812 88.4688C72.5938 88.0312 72.9219 87.7188 73.2656 87.5312C73.4844 87.5312 73.7031 87.5312 73.9219 87.5312C74.1406 87.5 74.3594 87.4844 74.5781 87.4844C74.8281 87.4844 75.0469 87.5 75.2344 87.5312C75.4531 87.5312 75.6875 87.5312 75.9375 87.5312C76.2812 87.4062 76.5156 87.2656 76.6406 87.1094C76.7656 86.9219 76.8906 86.75 77.0156 86.5938C77.1406 86.4375 77.2969 86.3125 77.4844 86.2188C77.7031 86.125 78.0781 86.0781 78.6094 86.0781C78.9531 86.0781 79.2969 86.0938 79.6406 86.125C79.9844 86.125 80.3281 86.125 80.6719 86.125C81.8594 86.125 83.0312 86.1094 84.1875 86.0781C85.375 86.0469 86.5625 86.0312 87.75 86.0312C88.5938 86.0312 89.4219 86.0469 90.2344 86.0781C91.0781 86.0781 91.9219 86.1406 92.7656 86.2656C93.3281 86.3281 93.875 86.4531 94.4062 86.6406C94.9375 86.7969 95.5 86.875 96.0938 86.875C96.6562 86.875 97.0469 86.7656 97.2656 86.5469C97.5156 86.3281 97.7031 86.0938 97.8281 85.8438C97.9844 85.5938 98.1562 85.3594 98.3438 85.1406C98.5312 84.9219 98.8594 84.8125 99.3281 84.8125C99.9844 84.8125 100.656 84.9844 101.344 85.3281C102.062 85.6719 102.734 85.9531 103.359 86.1719L103.312 86.3594C103.219 86.6406 103.172 86.9531 103.172 87.2969C103.172 87.8281 103.25 88.3594 103.406 88.8906C103.594 89.3906 103.781 89.8906 103.969 90.3906C104.156 90.8906 104.328 91.3906 104.484 91.8906C104.672 92.3906 104.766 92.9219 104.766 93.4844C104.766 93.8281 104.734 94.1562 104.672 94.4688C104.609 94.75 104.578 95.0625 104.578 95.4062C104.578 96.0312 104.703 96.4844 104.953 96.7656C105.203 97.0156 105.328 97.25 105.328 97.4688C105.328 97.7188 105.219 97.9375 105 98.125C104.781 98.2812 104.672 98.5312 104.672 98.875C104.672 99.6875 104.719 100.5 104.812 101.312C104.906 102.094 104.953 102.891 104.953 103.703C104.953 103.984 104.938 104.406 104.906 104.969C104.906 105.531 104.844 106.094 104.719 106.656C104.625 107.188 104.453 107.656 104.203 108.062C103.984 108.469 103.656 108.672 103.219 108.672C102.75 108.672 102.297 108.5 101.859 108.156C101.422 107.781 101.062 107.422 100.781 107.078C100.375 106.641 100.078 106.172 99.8906 105.672C99.7031 105.141 99.5469 104.594 99.4219 104.031C99.2969 103.469 99.1562 102.922 99 102.391C98.8438 101.828 98.6094 101.312 98.2969 100.844C97.7969 100.125 97.3125 99.4062 96.8438 98.6875C96.4062 97.9375 95.9688 97.1875 95.5312 96.4375C95.1875 95.875 94.8906 95.4844 94.6406 95.2656C94.3906 95.0469 94.125 94.9062 93.8438 94.8438C93.5625 94.75 93.2344 94.7031 92.8594 94.7031C92.5156 94.7031 92.0781 94.6562 91.5469 94.5625C90.9844 94.4688 90.4219 94.3281 89.8594 94.1406C89.3281 93.9531 88.7812 93.7812 88.2188 93.625C87.6875 93.4375 87.1406 93.2812 86.5781 93.1562C86.0156 93 85.4531 92.9219 84.8906 92.9219C83.9844 92.9219 83.0625 93.0625 82.125 93.3438C81.1875 93.625 80.25 93.9844 79.3125 94.4219C78.375 94.8281 77.4531 95.2656 76.5469 95.7344C75.6406 96.1719 74.7656 96.5469 73.9219 96.8594C73.1406 98.5156 72.75 100.297 72.75 102.203C72.75 103.578 72.9062 104.703 73.2188 105.578C73.5312 106.453 73.9531 107.203 74.4844 107.828C75.0469 108.422 75.6719 108.953 76.3594 109.422C77.0781 109.891 77.8281 110.391 78.6094 110.922C79.4219 111.453 80.2188 111.812 81 112C81.8125 112.156 82.6875 112.234 83.625 112.234C84.1562 112.234 84.6719 112.219 85.1719 112.188C85.7031 112.156 86.2344 112.141 86.7656 112.141C87.3594 112.141 87.9219 112.219 88.4531 112.375C88.9844 112.531 89.5 112.719 90 112.938C90.5312 113.125 91.0625 113.297 91.5938 113.453C92.125 113.609 92.6719 113.688 93.2344 113.688C93.7656 113.688 94.2656 113.656 94.7344 113.594C95.2344 113.531 95.7344 113.5 96.2344 113.5C96.6719 113.5 97.0625 113.609 97.4062 113.828C97.75 114.016 98.0938 114.25 98.4375 114.531C98.7812 114.781 99.125 115.016 99.4688 115.234C99.8438 115.453 100.25 115.578 100.688 115.609C101.312 115.922 101.828 116.203 102.234 116.453C102.641 116.703 103 116.969 103.312 117.25C103.656 117.531 103.969 117.875 104.25 118.281C104.562 118.688 104.906 119.188 105.281 119.781C105.625 120.375 106.078 120.891 106.641 121.328C107.203 121.766 107.656 122.297 108 122.922C108.125 123.141 108.203 123.406 108.234 123.719C108.266 124 108.312 124.281 108.375 124.562C108.438 124.812 108.531 125.047 108.656 125.266C108.812 125.453 109.047 125.562 109.359 125.594C109.391 125.938 109.406 126.281 109.406 126.625C109.438 126.938 109.453 127.266 109.453 127.609ZM175.584 127.609C175.584 129.203 175.475 130.766 175.256 132.297C175.069 133.828 174.928 135.391 174.834 136.984C174.616 136.766 174.366 136.594 174.084 136.469C173.834 136.312 173.569 136.234 173.287 136.234C172.944 136.234 172.616 136.344 172.303 136.562C171.991 136.781 171.834 137.062 171.834 137.406C171.834 137.781 172.006 138.031 172.35 138.156C172.725 138.281 173.1 138.344 173.475 138.344C173.787 138.344 174.006 138.328 174.131 138.297C174.131 138.672 174.022 139.062 173.803 139.469C173.616 139.844 173.366 140.219 173.053 140.594C172.772 140.969 172.459 141.328 172.116 141.672C171.803 141.984 171.522 142.266 171.272 142.516C171.084 142.703 170.881 142.969 170.662 143.312C170.444 143.656 170.194 144 169.912 144.344C169.662 144.656 169.397 144.938 169.116 145.188C168.834 145.406 168.553 145.516 168.272 145.516C167.959 145.516 167.709 145.438 167.522 145.281C167.334 145.094 167.116 145 166.866 145C166.522 145 166.303 145.188 166.209 145.562C166.147 145.906 166.116 146.25 166.116 146.594V147.156C166.116 147.312 165.787 147.516 165.131 147.766C164.475 148.016 163.678 148.297 162.741 148.609C161.834 148.891 160.881 149.188 159.881 149.5C158.912 149.781 158.1 150.062 157.444 150.344C156.162 150.875 154.866 151.312 153.553 151.656C152.241 152 150.881 152.172 149.475 152.172C148.444 152.172 147.444 152.031 146.475 151.75C145.537 151.5 144.584 151.219 143.616 150.906C142.678 150.562 141.725 150.266 140.756 150.016C139.819 149.734 138.834 149.594 137.803 149.594C137.397 149.594 136.866 149.656 136.209 149.781C135.553 149.906 135.053 150.094 134.709 150.344C134.553 150.469 134.397 150.688 134.241 151C134.084 151.344 133.897 151.516 133.678 151.516C133.522 151.516 133.303 151.453 133.022 151.328C132.741 151.203 132.537 151.109 132.412 151.047C131.694 150.672 131.084 150.188 130.584 149.594C130.084 148.969 129.662 148.297 129.319 147.578C128.975 146.859 128.725 146.109 128.569 145.328C128.412 144.516 128.334 143.734 128.334 142.984C128.334 142.453 128.381 141.938 128.475 141.438C128.6 140.906 128.662 140.375 128.662 139.844C128.662 139.094 128.569 138.359 128.381 137.641C128.225 136.922 128.147 136.188 128.147 135.438C128.147 134.906 128.225 134.375 128.381 133.844C128.569 133.312 128.662 132.781 128.662 132.25C128.662 131.844 128.569 131.469 128.381 131.125C128.194 130.75 128.1 130.359 128.1 129.953C128.1 129.672 128.194 129.438 128.381 129.25C128.6 129.062 128.709 128.844 128.709 128.594C128.709 128.219 128.694 127.844 128.662 127.469C128.631 127.094 128.616 126.719 128.616 126.344C128.616 126.156 128.616 125.891 128.616 125.547C128.647 125.172 128.694 124.812 128.756 124.469C128.819 124.125 128.928 123.828 129.084 123.578C129.241 123.328 129.459 123.203 129.741 123.203C130.303 123.203 130.866 123.562 131.428 124.281C132.022 124.969 132.553 125.781 133.022 126.719C133.522 127.656 133.928 128.594 134.241 129.531C134.553 130.469 134.709 131.172 134.709 131.641C134.709 131.797 134.647 131.953 134.522 132.109C134.397 132.234 134.241 132.297 134.053 132.297C134.178 132.516 134.319 132.844 134.475 133.281C134.631 133.719 134.709 134.062 134.709 134.312C134.709 134.688 134.647 135.047 134.522 135.391C134.428 135.734 134.381 136.094 134.381 136.469C134.381 136.781 134.444 137.078 134.569 137.359C134.725 137.641 134.881 137.906 135.037 138.156C135.287 138.531 135.506 138.812 135.694 139C135.881 139.188 136.084 139.328 136.303 139.422C136.522 139.484 136.756 139.531 137.006 139.562C137.287 139.594 137.647 139.625 138.084 139.656C138.709 140.562 139.412 141.406 140.194 142.188C140.975 142.969 141.819 143.672 142.725 144.297C144.131 144.609 145.522 144.859 146.897 145.047C148.272 145.234 149.662 145.328 151.069 145.328C152.225 145.328 153.225 145.203 154.069 144.953C154.944 144.703 155.741 144.375 156.459 143.969C157.209 143.562 157.928 143.109 158.616 142.609C159.303 142.078 160.022 141.531 160.772 140.969C161.303 140.594 161.866 140.234 162.459 139.891C163.053 139.547 163.631 139.188 164.194 138.812C164.756 138.438 165.287 138.031 165.787 137.594C166.287 137.125 166.709 136.594 167.053 136C167.272 135.625 167.584 135.25 167.991 134.875C168.428 134.469 168.647 134.031 168.647 133.562C168.647 133.375 168.631 133.234 168.6 133.141C168.475 132.141 168.381 131.172 168.319 130.234C168.287 129.266 168.241 128.281 168.178 127.281C168.116 126.344 167.912 125.641 167.569 125.172C167.225 124.672 166.787 124.266 166.256 123.953C165.756 123.609 165.209 123.281 164.616 122.969C164.022 122.656 163.444 122.219 162.881 121.656C162.287 121.062 161.616 120.688 160.866 120.531C160.147 120.375 159.397 120.281 158.616 120.25C157.834 120.219 157.053 120.172 156.272 120.109C155.522 120.016 154.819 119.719 154.162 119.219C153.975 119.094 153.819 119.031 153.694 119.031C153.412 119.031 153.131 119.125 152.85 119.312C152.6 119.469 152.319 119.547 152.006 119.547C151.537 119.547 151.053 119.484 150.553 119.359C150.084 119.234 149.616 119.094 149.147 118.938C148.678 118.781 148.209 118.625 147.741 118.469C147.272 118.312 146.803 118.203 146.334 118.141C145.709 118.047 145.194 117.984 144.787 117.953C144.412 117.922 144.053 117.875 143.709 117.812C143.397 117.719 143.053 117.594 142.678 117.438C142.303 117.25 141.834 116.969 141.272 116.594C139.647 115.531 137.912 114.75 136.069 114.25C135.725 113.375 135.272 112.484 134.709 111.578C134.366 111.359 134.022 111.156 133.678 110.969C133.366 110.75 133.053 110.516 132.741 110.266C132.553 109.953 132.303 109.406 131.991 108.625C131.709 107.844 131.428 107.016 131.147 106.141C130.866 105.234 130.616 104.391 130.397 103.609C130.209 102.828 130.116 102.266 130.116 101.922C130.116 101.203 130.194 100.516 130.35 99.8594C130.506 99.2031 130.866 98.6094 131.428 98.0781C131.522 98.0156 131.631 97.9375 131.756 97.8438C131.912 97.7188 131.991 97.5781 131.991 97.4219C131.991 97.2656 131.866 97.1562 131.616 97.0938C131.397 97 131.287 96.8281 131.287 96.5781C131.287 96.5469 131.303 96.5 131.334 96.4375C131.366 96.3438 131.381 96.2656 131.381 96.2031C131.6 95.5156 131.928 94.8594 132.366 94.2344C132.803 93.6094 133.303 93.0156 133.866 92.4531C134.428 91.8906 135.006 91.375 135.6 90.9062C136.225 90.4062 136.819 89.9531 137.381 89.5469C137.787 89.2656 138.131 88.9062 138.412 88.4688C138.725 88.0312 139.053 87.7188 139.397 87.5312C139.616 87.5312 139.834 87.5312 140.053 87.5312C140.272 87.5 140.491 87.4844 140.709 87.4844C140.959 87.4844 141.178 87.5 141.366 87.5312C141.584 87.5312 141.819 87.5312 142.069 87.5312C142.412 87.4062 142.647 87.2656 142.772 87.1094C142.897 86.9219 143.022 86.75 143.147 86.5938C143.272 86.4375 143.428 86.3125 143.616 86.2188C143.834 86.125 144.209 86.0781 144.741 86.0781C145.084 86.0781 145.428 86.0938 145.772 86.125C146.116 86.125 146.459 86.125 146.803 86.125C147.991 86.125 149.162 86.1094 150.319 86.0781C151.506 86.0469 152.694 86.0312 153.881 86.0312C154.725 86.0312 155.553 86.0469 156.366 86.0781C157.209 86.0781 158.053 86.1406 158.897 86.2656C159.459 86.3281 160.006 86.4531 160.537 86.6406C161.069 86.7969 161.631 86.875 162.225 86.875C162.787 86.875 163.178 86.7656 163.397 86.5469C163.647 86.3281 163.834 86.0938 163.959 85.8438C164.116 85.5938 164.287 85.3594 164.475 85.1406C164.662 84.9219 164.991 84.8125 165.459 84.8125C166.116 84.8125 166.787 84.9844 167.475 85.3281C168.194 85.6719 168.866 85.9531 169.491 86.1719L169.444 86.3594C169.35 86.6406 169.303 86.9531 169.303 87.2969C169.303 87.8281 169.381 88.3594 169.537 88.8906C169.725 89.3906 169.912 89.8906 170.1 90.3906C170.287 90.8906 170.459 91.3906 170.616 91.8906C170.803 92.3906 170.897 92.9219 170.897 93.4844C170.897 93.8281 170.866 94.1562 170.803 94.4688C170.741 94.75 170.709 95.0625 170.709 95.4062C170.709 96.0312 170.834 96.4844 171.084 96.7656C171.334 97.0156 171.459 97.25 171.459 97.4688C171.459 97.7188 171.35 97.9375 171.131 98.125C170.912 98.2812 170.803 98.5312 170.803 98.875C170.803 99.6875 170.85 100.5 170.944 101.312C171.037 102.094 171.084 102.891 171.084 103.703C171.084 103.984 171.069 104.406 171.037 104.969C171.037 105.531 170.975 106.094 170.85 106.656C170.756 107.188 170.584 107.656 170.334 108.062C170.116 108.469 169.787 108.672 169.35 108.672C168.881 108.672 168.428 108.5 167.991 108.156C167.553 107.781 167.194 107.422 166.912 107.078C166.506 106.641 166.209 106.172 166.022 105.672C165.834 105.141 165.678 104.594 165.553 104.031C165.428 103.469 165.287 102.922 165.131 102.391C164.975 101.828 164.741 101.312 164.428 100.844C163.928 100.125 163.444 99.4062 162.975 98.6875C162.537 97.9375 162.1 97.1875 161.662 96.4375C161.319 95.875 161.022 95.4844 160.772 95.2656C160.522 95.0469 160.256 94.9062 159.975 94.8438C159.694 94.75 159.366 94.7031 158.991 94.7031C158.647 94.7031 158.209 94.6562 157.678 94.5625C157.116 94.4688 156.553 94.3281 155.991 94.1406C155.459 93.9531 154.912 93.7812 154.35 93.625C153.819 93.4375 153.272 93.2812 152.709 93.1562C152.147 93 151.584 92.9219 151.022 92.9219C150.116 92.9219 149.194 93.0625 148.256 93.3438C147.319 93.625 146.381 93.9844 145.444 94.4219C144.506 94.8281 143.584 95.2656 142.678 95.7344C141.772 96.1719 140.897 96.5469 140.053 96.8594C139.272 98.5156 138.881 100.297 138.881 102.203C138.881 103.578 139.037 104.703 139.35 105.578C139.662 106.453 140.084 107.203 140.616 107.828C141.178 108.422 141.803 108.953 142.491 109.422C143.209 109.891 143.959 110.391 144.741 110.922C145.553 111.453 146.35 111.812 147.131 112C147.944 112.156 148.819 112.234 149.756 112.234C150.287 112.234 150.803 112.219 151.303 112.188C151.834 112.156 152.366 112.141 152.897 112.141C153.491 112.141 154.053 112.219 154.584 112.375C155.116 112.531 155.631 112.719 156.131 112.938C156.662 113.125 157.194 113.297 157.725 113.453C158.256 113.609 158.803 113.688 159.366 113.688C159.897 113.688 160.397 113.656 160.866 113.594C161.366 113.531 161.866 113.5 162.366 113.5C162.803 113.5 163.194 113.609 163.537 113.828C163.881 114.016 164.225 114.25 164.569 114.531C164.912 114.781 165.256 115.016 165.6 115.234C165.975 115.453 166.381 115.578 166.819 115.609C167.444 115.922 167.959 116.203 168.366 116.453C168.772 116.703 169.131 116.969 169.444 117.25C169.787 117.531 170.1 117.875 170.381 118.281C170.694 118.688 171.037 119.188 171.412 119.781C171.756 120.375 172.209 120.891 172.772 121.328C173.334 121.766 173.787 122.297 174.131 122.922C174.256 123.141 174.334 123.406 174.366 123.719C174.397 124 174.444 124.281 174.506 124.562C174.569 124.812 174.662 125.047 174.787 125.266C174.944 125.453 175.178 125.562 175.491 125.594C175.522 125.938 175.537 126.281 175.537 126.625C175.569 126.938 175.584 127.266 175.584 127.609Z" fill="#A7A9BE"/>
</svg>
